Coordinates
version=1
nRows=17
nColumns=36
inDegrees=yes

Units are S.I. units (second, meters, Newtons, ...)
If the header above contains a line with 'inDegrees', this indicates whether rotational values are in degrees (yes) or radians (no).

endheader
time	pelvis_tilt	pelvis_list	pelvis_rotation	pelvis_tx	pelvis_ty	pelvis_tz	hip_flexion_r	hip_adduction_r	hip_rotation_r	knee_angle_r	knee_angle_r_beta	ankle_angle_r	subtalar_angle_r	mtp_angle_r	hip_flexion_l	hip_adduction_l	hip_rotation_l	knee_angle_l	knee_angle_l_beta	ankle_angle_l	subtalar_angle_l	mtp_angle_l	lumbar_extension	lumbar_bending	lumbar_rotation	arm_flex_r	arm_add_r	arm_rot_r	elbow_flex_r	pro_sup_r	arm_flex_l	arm_add_l	arm_rot_l	elbow_flex_l	pro_sup_l
      7.90000000	      4.46061714	      3.39015751	      5.16838374	      0.47017913	      0.71495174	      0.49434201	     38.38681145	     10.44287146	      6.18705210	     75.66895231	      1.32067236	     35.43850740	    -23.76215279	     -7.49999987	     54.05609706	     -4.18391191	      2.29934136	     20.25532984	      0.35352220	      0.95305327	    -12.39585911	     -7.49999987	    -35.11214694	     -3.02274658	     -1.85491517	     79.50990575	      2.04821856	     79.55315581	    124.42556338	     85.09424314	     68.94020244	      7.68682391	     78.84367304	    119.39457590	     76.67175466
      7.91666670	      4.96428871	      3.11316316	      5.30533052	      0.47023667	      0.71200421	      0.49383182	     38.22721512	     11.05877434	      6.27068425	     76.35584113	      1.33266083	     35.53844719	    -24.07085972	     -7.49999987	     53.52520584	     -4.28365431	      2.02154304	     20.19919032	      0.35254238	      1.13077974	    -11.80001471	     -7.49999987	    -35.51683317	     -2.85175054	     -2.03834664	     79.14970529	      2.01832482	     80.06508104	    124.28877177	     84.89938491	     68.35744840	      7.47435815	     79.39359384	    118.86182017	     76.59316024
      7.93333330	      5.07030186	      3.16823428	      5.38111409	      0.47038632	      0.71010409	      0.49354750	     38.10407689	     11.35867535	      6.34141609	     76.81411762	      1.34065926	     35.91627369	    -24.70831089	     -7.49999987	     53.61842552	     -4.08447677	      1.89851490	     20.84243935	      0.36376919	      1.41597810	    -11.66957977	     -7.49999987	    -35.84189176	     -2.86243338	     -2.31048244	     78.98910759	      2.05304925	     80.74709954	    124.09187685	     84.77658834	     68.39293620	      7.28953292	     79.95505209	    118.81053050	     76.57323578
      7.95000000	      5.44026844	      3.24961221	      5.31061270	      0.47101123	      0.70958340	      0.49391416	     37.73007277	     11.70094609	      6.67630313	     77.16594742	      1.34679985	     35.91011016	    -25.42485795	     -7.49999987	     53.03662248	     -4.08522421	      1.52559214	     20.72637618	      0.36174351	      1.07595620	    -11.47202812	     -7.49999987	    -36.31956249	     -2.90910344	     -2.28490840	     79.03108642	      1.85393459	     81.40543561	    123.75503352	     84.26542671	     68.47514617	      7.15997318	     79.92864092	    118.46384766	     76.24831581
      7.96666670	      5.65562856	      2.97859787	      4.79226703	      0.46569892	      0.70835025	      0.49186987	     38.01010837	     12.34163118	      6.95702530	     77.56568893	      1.35377666	     35.66741315	    -25.99471661	     -7.49999987	     52.93837026	     -4.29745393	      1.27788016	     20.26231584	      0.35364413	      0.34248033	    -11.45428290	     -7.49999987	    -36.99528156	     -2.58188869	     -2.21906057	     79.70138904	      1.90258278	     81.68621770	    123.39241668	     84.08154970	     68.88569356	      6.90391301	     79.36599174	    118.58078220	     76.17701118
      7.98333330	      5.88268894	      3.02001367	      4.67058317	      0.46685437	      0.70785749	      0.49248762	     37.95411093	     12.38666040	      7.14764486	     77.64861478	      1.35522399	     35.64280249	    -25.91219398	     -7.49999987	     52.73754982	     -4.20353633	      1.12303414	     20.03193123	      0.34962316	     -0.18283092	    -11.57551128	     -7.49999987	    -37.63265828	     -2.33677928	     -2.35452026	     80.50398322	      1.76368848	     81.49988890	    123.06347382	     83.86996611	     69.26874743	      7.06347311	     78.68706271	    118.56563548	     76.17420490
      8.00000000	      5.82647041	      2.95414667	      5.10473346	      0.47233914	      0.70969096	      0.49409866	     37.40132518	     12.39543332	      6.87677997	     76.94143251	      1.34288133	     36.11881874	    -25.62111984	     -7.49999987	     52.57716154	     -3.87829311	      0.83539144	     19.92899452	      0.34782657	     -0.35478710	    -10.74877823	     -7.49999987	    -37.63650655	     -2.04775719	     -2.50528148	     80.50386328	      1.50164601	     81.85520612	    123.17509859	     84.00707303	     68.11367693	      7.73580723	     78.48844587	    118.57543194	     76.38940273
      8.01666670	      5.57209971	      3.01383536	      5.02440845	      0.47341056	      0.70865732	      0.49429676	     37.34577886	     12.46266394	      7.00239297	     76.80118453	      1.34043354	     36.46755991	    -25.19481256	     -7.49999987	     52.63404378	     -3.85364322	      0.48773503	     19.94454473	      0.34809797	     -0.16956126	    -10.24891932	     -7.49999987	    -37.64776173	     -2.09871352	     -2.99762186	     81.05711303	      2.06954972	     82.77879956	    123.56836249	     83.44235757	     68.63957344	      8.18316071	     78.44257075	    118.45315061	     76.11162170
      8.03333330	      5.75807045	      3.20035126	      4.92979289	      0.46706258	      0.70778088	      0.49220442	     37.22458503	     12.25462641	      7.12227956	     76.80609955	      1.34051932	     36.28656327	    -25.14476323	     -7.49999987	     52.11974054	     -3.51244339	      0.66529647	     19.39215264	      0.33845691	     -0.48763166	    -10.27180899	     -7.49999987	    -37.78769340	     -2.26878403	     -3.01035385	     81.52117360	      2.03900629	     83.47150606	    123.50300695	     83.58805803	     67.26683237	      9.11960076	     78.31727422	    118.58527021	     76.37635964
      8.05000000	      5.99379742	      3.14365241	      4.95858821	      0.46804469	      0.70961768	      0.49255695	     36.87123452	     12.23978795	      7.03950974	     76.69001723	      1.33849330	     36.00250735	    -25.57577257	     -7.49999987	     51.48676663	     -3.47896892	      0.84652861	     19.08765241	      0.33314238	     -0.66215538	    -10.23619456	     -7.49999987	    -37.90404566	     -2.12822633	     -2.72960821	     81.61951529	      1.75123497	     84.30870111	    123.49179895	     83.06974503	     65.95269874	      9.82928840	     77.84603041	    118.26809705	     76.84254089
      8.06666670	      5.92230293	      3.07521209	      4.85559292	      0.46267359	      0.70833603	      0.49011948	     37.18067081	     12.06727111	      7.04454955	     76.56052876	      1.33623330	     35.68256629	    -25.87542020	     -7.49999987	     51.83883009	     -3.31154064	      0.84533465	     19.89112059	      0.34716555	     -0.63256091	    -10.56332996	     -7.49999987	    -37.85239108	     -2.03462942	     -2.52114101	     82.09629061	      1.20374913	     84.29374110	    123.50868199	     83.14665752	     65.08333962	     10.82125734	     76.71960977	    117.83753754	     77.09601201
      8.08333330	      5.98074975	      2.99170390	      4.68309527	      0.46849347	      0.71409814	      0.49240670	     36.50112949	     12.04193536	      7.01688106	     75.76797251	      1.32240059	     35.39053007	    -25.82270227	     -7.49999987	     51.26743218	     -3.29300011	      0.68845541	     19.99203154	      0.34892677	     -0.63730425	    -10.54339758	     -7.49999987	    -37.98103294	     -2.21459984	     -2.43953580	     82.55369772	      0.91572489	     85.00049305	    123.76014579	     83.23767834	     64.47206814	     11.51079954	     75.96608436	    117.28916621	     77.33423793
      8.10000000	      5.53216063	      3.37722368	      4.97799327	      0.47847361	      0.71310940	      0.49571320	     36.02028989	     11.64022343	      6.83719689	     75.20648277	      1.31260074	     35.45570104	    -25.95024754	     -7.49999987	     51.35475503	     -2.87198986	      0.73062472	     21.04937585	      0.36738091	      0.33925138	    -10.47090401	     -7.49999987	    -37.33299355	     -2.76414740	     -2.83997627	     81.85084115	      0.97276176	     85.33675786	    123.73214497	     83.36502682	     63.33386321	     11.74233664	     75.71089813	    117.51393236	     77.74447950
      8.11666670	      5.16384514	      3.61891290	      5.34570289	      0.47202598	      0.71397903	      0.49387114	     35.97686386	     11.29027452	      6.72289651	     74.61794906	      1.30232889	     35.11232269	    -26.24141028	     -7.49999987	     51.49957403	     -2.20972178	      0.69330440	     21.09257783	      0.36813493	      0.65089991	    -10.66735964	     -7.49999987	    -36.90591590	     -3.19409818	     -3.02944272	     82.07506332	      0.72010820	     85.46931912	    124.35638307	     83.51498126	     62.71944628	     12.10724282	     75.43444013	    118.04271624	     78.07379160
      8.13333330	      4.48491868	      3.68840566	      5.57519712	      0.47158183	      0.71736495	      0.49398745	     36.21382864	     11.02829391	      6.54410607	     73.94535609	      1.29058993	     35.05658341	    -26.25510365	     -7.49999987	     51.92794288	     -1.86993416	      0.96872034	     20.91678227	      0.36506672	      0.60920381	    -10.53120519	     -7.49999987	    -36.37653733	     -3.55932167	     -3.08909300	     82.22912970	      0.70916968	     85.16402130	    124.43637544	     82.99015416	     62.06374257	     12.51222249	     75.64541208	    118.12174558	     77.73013091
      8.15000000	      4.04550528	      4.12132585	      6.04336336	      0.47202461	      0.72142254	      0.49462436	     36.13869110	     10.23275680	      6.36448077	     72.93349205	      1.27292957	     35.05427796	    -25.95540734	     -7.49999987	     52.12573410	     -0.97201084	      1.17324778	     20.49397496	      0.35768734	      0.10386723	    -10.75348625	     -7.49999987	    -35.91955767	     -3.88436340	     -3.03686453	     82.33235558	      0.67846219	     85.32746311	    125.11561181	     82.72198759	     61.72723943	     12.91127785	     76.26500342	    118.95509866	     77.72188228
      8.16666670	      4.10840574	      4.53556029	      6.53130722	      0.47557105	      0.72580460	      0.49606119	     35.39111433	      9.58585898	      6.29083872	     72.08876620	      1.25818632	     34.55346627	    -26.10325194	     -7.49999987	     51.20722761	     -0.21102974	      1.66579727	     19.70903283	      0.34398752	     -0.25649268	    -10.75466294	     -7.49999987	    -35.76690901	     -4.41373397	     -3.68665902	     82.36733469	      0.81393046	     85.38549974	    124.79873291	     82.36046023	     61.81289281	     13.01712973	     77.09279827	    119.28410635	     77.70824632
